<svg width="300" height="300" viewBox="0 0 300 300" fill="none" xmlns="http://www.w3.org/2000/svg">
<rect width="300" height="300" rx="150" fill="#2627E6"/>
<path d="M78.0363 128.771C80.163 117.535 80.163 110.54 78.4616 104.816V103.968H100.792C102.281 107.784 103.131 112.66 102.068 120.715H102.493C111.426 107.996 122.272 101 135.457 101C151.833 101 162.467 110.54 166.082 125.379H166.507C177.141 108.632 189.901 101 205.001 101C228.395 101 241.793 120.503 235.413 152.726L226.268 200H203.299L212.657 151.242C217.123 128.135 209.042 120.927 195.005 120.927C182.245 120.927 169.272 134.283 164.806 157.814L156.724 200H133.543L143.114 151.242C147.58 128.135 139.498 120.927 125.462 120.927C112.702 120.927 99.7287 134.283 95.2626 157.814L87.1811 200H64L78.0363 128.771Z" fill="white"/>
</svg>
